<svg width="102" height="35" viewBox="0 0 102 35" fill="none" xmlns="http://www.w3.org/2000/svg">
<path fill-rule="evenodd" clip-rule="evenodd" d="M21.6297 26.946C21.6704 26.6443 21.9376 26.4171 22.2225 26.416C22.5156 26.415 22.7344 26.6404 22.6937 26.942C22.6613 27.2438 22.4191 27.4709 22.1007 27.4722C21.7824 27.4734 21.5972 27.2478 21.6297 26.946H21.6297ZM19.9719 33.9728L20.0289 33.5369C20.0372 33.4616 20.0787 33.4111 20.171 33.4107C20.7489 33.4002 21.0329 33.1479 21.0978 32.6031L21.6176 28.2197C21.6257 28.1441 21.6843 28.0937 21.7513 28.0935L22.2874 28.0914C22.3628 28.0911 22.4049 28.1412 22.3967 28.2166L21.8769 32.5919C21.747 33.673 21.2626 34.0936 20.0814 34.098C19.9975 34.0984 19.9638 34.0483 19.9719 33.9728V33.9728Z" fill="#242E3F"/>
<path fill-rule="evenodd" clip-rule="evenodd" d="M25.9249 28.0745L26.4607 28.0726C26.5275 28.0722 26.5696 28.1223 26.5615 28.1979L26.0825 32.2135C26.0745 32.289 26.0244 32.3395 25.949 32.3398L25.4216 32.3416C25.3462 32.3419 25.3042 32.2918 25.3124 32.2164L25.3449 31.965C25.3448 31.9313 25.328 31.923 25.2947 31.9484C25.053 32.2425 24.7019 32.4029 24.2497 32.4047C23.4795 32.4075 22.8332 31.9492 22.9386 31.027L23.2713 28.2101C23.2794 28.1346 23.3378 28.0842 23.4132 28.0839L23.9406 28.0819C24.016 28.0817 24.0579 28.1317 24.05 28.2073L23.7413 30.7726C23.6765 31.3426 23.9374 31.7103 24.4817 31.7083C25.0258 31.7063 25.4178 31.3361 25.4827 30.7661L25.7913 28.2007C25.7994 28.1253 25.8578 28.0748 25.9249 28.0745L25.9249 28.0745Z" fill="#242E3F"/>
<path fill-rule="evenodd" clip-rule="evenodd" d="M30.6304 29.4749L30.3053 32.1995C30.2972 32.275 30.2471 32.3256 30.1716 32.3257L29.635 32.3278C29.5596 32.3281 29.5176 32.2778 29.5256 32.2025L29.8347 29.637C29.8996 29.0836 29.6048 28.6993 29.085 28.7013C28.6071 28.7031 28.231 29.0145 28.1154 29.4926L27.7903 32.209C27.7822 32.2844 27.732 32.335 27.6565 32.3351L27.12 32.3372C27.0445 32.3376 27.0023 32.2873 27.0104 32.212L27.4901 28.1961C27.4983 28.1206 27.5568 28.0701 27.6322 28.0699L28.1687 28.0678C28.2358 28.0676 28.2779 28.1177 28.2697 28.1931L28.2455 28.4278C28.2372 28.4614 28.2625 28.4781 28.2876 28.4529C28.5547 28.1417 28.923 28.0063 29.359 28.0047C30.2476 28.0013 30.7361 28.5693 30.6304 29.4749L30.6304 29.4749Z" fill="#242E3F"/>
<path fill-rule="evenodd" clip-rule="evenodd" d="M33.5409 28.7096L32.7099 28.7127C32.6847 28.7127 32.6679 28.7295 32.668 28.7547L32.4076 30.943C32.3507 31.4293 32.5276 31.6048 32.9641 31.603L33.1572 31.6023C33.2327 31.602 33.2749 31.6522 33.2668 31.7276L33.2096 32.1636C33.2016 32.2391 33.1598 32.2895 33.0759 32.2982C32.9583 32.2986 32.8492 32.3075 32.7401 32.3079C31.9846 32.3107 31.5138 32.1197 31.6196 31.2393L31.9209 28.7575C31.9208 28.7323 31.9041 28.7156 31.8787 28.7158L31.4339 28.7175C31.3583 28.7177 31.3162 28.6676 31.3243 28.5922L31.3732 28.1813C31.3813 28.1057 31.4398 28.0553 31.5153 28.0551L31.9603 28.0533C31.9855 28.0532 32.0022 28.0364 32.0105 28.0113L32.1161 27.0722C32.1242 26.9968 32.1829 26.9463 32.2584 26.946L32.762 26.9441C32.8376 26.9438 32.8797 26.994 32.8631 27.0695L32.7576 28.0084C32.7492 28.0337 32.7661 28.0504 32.7913 28.0503L33.6224 28.0473C33.6979 28.0469 33.74 28.0969 33.7319 28.1725L33.6832 28.5833C33.675 28.6588 33.6164 28.7092 33.5409 28.7096L33.5409 28.7096Z" fill="#242E3F"/>
<path fill-rule="evenodd" clip-rule="evenodd" d="M36.6649 30.9532C36.7397 30.7517 36.8139 30.4499 36.8463 30.1649C36.8788 29.8549 36.886 29.5699 36.8601 29.3856C36.7747 28.9337 36.4638 28.6667 36.003 28.6685C35.5507 28.6701 35.183 28.9396 34.9837 29.3928C34.909 29.5773 34.843 29.8624 34.8023 30.1726C34.7698 30.4743 34.7709 30.7675 34.7968 30.9602C34.8739 31.4121 35.1931 31.6792 35.6539 31.6774C36.098 31.6759 36.4656 31.4061 36.6649 30.9532ZM34.0435 31.1891C33.984 30.9129 33.9743 30.536 34.0147 30.1671C34.0636 29.7984 34.1544 29.4293 34.279 29.1608C34.603 28.4223 35.2799 27.9758 36.1093 27.9727C36.8968 27.9697 37.4514 28.4118 37.6049 29.14C37.673 29.4246 37.6743 29.7932 37.6338 30.1452C37.5932 30.5057 37.5025 30.8829 37.3695 31.1766C37.0373 31.9236 36.3603 32.37 35.5728 32.373C34.7602 32.3761 34.1889 31.9342 34.0435 31.1891Z" fill="#242E3F"/>
<path fill-rule="evenodd" clip-rule="evenodd" d="M41.1764 27.754C41.1519 27.9635 41.2113 28.1391 41.6325 28.7659C41.6494 28.791 41.6662 28.791 41.6912 28.7741C42.1759 28.4623 42.5686 28.1592 42.6171 27.7317C42.666 27.3378 42.3969 27.0874 41.9613 27.0891C41.5424 27.0906 41.2251 27.3433 41.1764 27.754ZM42.3956 31.2009C42.429 31.1841 42.429 31.1672 42.4122 31.1423C42.0921 30.6995 42.092 30.6826 41.9238 30.4739C41.7216 30.2065 41.5533 29.9726 41.4016 29.7638C41.3848 29.7387 41.3681 29.7388 41.343 29.7556C40.8667 30.0758 40.4657 30.4039 40.3838 30.8901C40.3018 31.4099 40.655 31.7101 41.2915 31.6659C41.6516 31.6311 42.0279 31.4705 42.3956 31.2009V31.2009ZM43.9328 32.2759L43.338 32.2782C43.2793 32.2784 43.229 32.2618 43.1952 32.2117L42.8501 31.7521C42.8416 31.727 42.8249 31.7272 42.7998 31.744C42.2317 32.165 41.6794 32.3514 41.0846 32.3535C40.1546 32.3571 39.4829 31.9156 39.5965 30.9601C39.6939 30.1136 40.312 29.617 40.964 29.2207C40.9807 29.204 40.9889 29.1788 40.9722 29.1621C40.4498 28.4016 40.3567 28.1254 40.3972 27.7568C40.4946 26.9187 41.146 26.3549 42.034 26.3516C42.922 26.3483 43.4937 26.8906 43.3963 27.7122C43.307 28.4747 42.7138 28.921 42.0702 29.3088C42.0451 29.3257 42.0451 29.3424 42.0536 29.3676L42.9463 30.6041L42.9799 30.6458C42.9884 30.6626 43.0052 30.6626 43.0302 30.6457C43.2138 30.4439 43.414 30.2169 43.6059 29.9732C43.6558 29.906 43.7227 29.8891 43.7815 29.9308L44.151 30.1556C44.2097 30.1972 44.2184 30.2643 44.16 30.3315C43.9016 30.6591 43.6598 30.9532 43.4177 31.2056C43.3927 31.2224 43.4011 31.2476 43.4264 31.2892C43.7044 31.6821 43.8896 31.941 44.016 32.1248C44.0833 32.2085 44.0417 32.2755 43.9328 32.2759V32.2759Z" fill="#242E3F"/>
<path fill-rule="evenodd" clip-rule="evenodd" d="M52.2805 29.3581L51.9557 32.1158C51.9393 32.1913 51.8892 32.2417 51.8139 32.242L51.2862 32.244C51.2107 32.2443 51.1687 32.1941 51.1768 32.1186L51.4854 29.5285C51.5586 28.967 51.2725 28.616 50.7783 28.618C50.284 28.6198 49.8917 28.9648 49.8268 29.5179L49.5181 32.1249C49.5018 32.2004 49.4517 32.2509 49.3763 32.2511L48.8485 32.2531C48.7732 32.2533 48.7311 32.2033 48.7391 32.1279L49.0478 29.5377C49.1211 28.976 48.8349 28.6253 48.3407 28.627C47.8465 28.6289 47.4792 28.9738 47.4144 29.527L47.0974 32.1341C47.0893 32.2095 47.0393 32.2599 46.9638 32.2601L46.4277 32.2621C46.3524 32.2624 46.3103 32.2123 46.3184 32.1368L46.7976 28.1217C46.8057 28.0463 46.8642 27.9958 46.9395 27.9955L47.4757 27.9935C47.5427 27.9933 47.5847 28.0433 47.5766 28.1189L47.5523 28.345C47.5441 28.3786 47.5693 28.3954 47.5943 28.37C47.8863 28.0673 48.2711 27.9319 48.6816 27.9303C49.2261 27.9283 49.5955 28.1531 49.7646 28.563C49.7815 28.5881 49.7982 28.5879 49.8233 28.5627C50.1397 28.1093 50.625 27.9231 51.1192 27.9212C51.94 27.9181 52.386 28.4443 52.2805 29.358L52.2805 29.3581Z" fill="#242E3F"/>
<path fill-rule="evenodd" clip-rule="evenodd" d="M53.3706 26.8114C53.4114 26.5012 53.6536 26.2825 53.9719 26.2813C54.2903 26.28 54.4754 26.4972 54.4347 26.8073C54.4022 27.1174 54.16 27.3362 53.8502 27.3373C53.5318 27.3386 53.3383 27.1213 53.3706 26.8114H53.3706ZM52.8877 32.1162L53.3671 28.1015C53.3751 28.026 53.4337 27.9757 53.5006 27.9753L54.0369 27.9733C54.1122 27.973 54.1543 28.0231 54.1462 28.0986L53.667 32.1132C53.6588 32.1887 53.6088 32.2393 53.5333 32.2394L52.9972 32.2415C52.9218 32.2418 52.8796 32.1915 52.8877 32.1162L52.8877 32.1162Z" fill="#242E3F"/>
<path fill-rule="evenodd" clip-rule="evenodd" d="M54.591 31.1385L54.5992 31.0882C54.6074 31.0128 54.6659 30.9624 54.733 30.9621L55.236 30.9602C55.3115 30.9599 55.362 30.9849 55.3538 31.0183L55.3455 31.0854C55.3132 31.3871 55.6328 31.6707 56.1443 31.6687C56.6557 31.6668 57.0069 31.4142 57.0476 31.0875C57.0882 30.7271 56.6937 30.6115 56.2237 30.4708C55.5353 30.2724 54.763 30.0157 54.8604 29.1527C54.9498 28.3903 55.644 27.9272 56.5663 27.9237C57.5305 27.9202 58.0943 28.4288 58.0131 29.1242C58.0049 29.1913 57.9463 29.2334 57.8793 29.2336L57.3846 29.2355C57.3175 29.2357 57.2671 29.2108 57.2754 29.1772L57.2835 29.127C57.3158 28.817 57.0299 28.5584 56.4849 28.5604C56.0153 28.5623 55.6554 28.7561 55.6148 29.0913C55.5742 29.4516 55.952 29.5759 56.4556 29.7245C57.1272 29.9148 57.9414 30.1546 57.8357 31.0343C57.7379 31.7968 57.0522 32.2767 56.0794 32.2803C55.0985 32.284 54.518 31.7752 54.5911 31.1385L54.591 31.1385Z" fill="#242E3F"/>
<path fill-rule="evenodd" clip-rule="evenodd" d="M60.7211 28.6064L59.8936 28.6096C59.8685 28.6097 59.8518 28.6264 59.8519 28.6516L59.5926 30.84C59.536 31.3261 59.7122 31.5015 60.1468 31.4999L60.3391 31.4993C60.4143 31.499 60.4563 31.549 60.4483 31.6244L60.3914 32.0605C60.3832 32.136 60.3417 32.1863 60.258 32.195C60.141 32.1955 60.0325 32.2043 59.9238 32.2048C59.1716 32.2075 58.7026 32.0165 58.808 31.1361L59.1081 28.6543C59.1081 28.6291 59.0912 28.6126 59.0661 28.6127L58.6232 28.6143C58.5478 28.6146 58.5059 28.5644 58.514 28.489L58.5627 28.0781C58.5707 28.0027 58.6291 27.9522 58.7042 27.9518L59.1473 27.9503C59.1723 27.9502 59.189 27.9332 59.1973 27.9081L59.3024 26.9691C59.3104 26.8937 59.3689 26.8431 59.444 26.8429L59.9455 26.841C60.0208 26.8408 60.0628 26.8908 60.0463 26.9663L59.9411 27.9054C59.9328 27.9305 59.9498 27.9471 59.9747 27.9471L60.8024 27.944C60.8775 27.9437 60.9194 27.9939 60.9114 28.0693L60.8628 28.4802C60.8546 28.5556 60.7965 28.6061 60.7211 28.6064H60.7211Z" fill="#242E3F"/>
<path fill-rule="evenodd" clip-rule="evenodd" d="M64.253 27.9387L64.7888 27.9366C64.8558 27.9365 64.8979 27.9865 64.8899 28.0621L64.4109 32.078C64.4028 32.1533 64.3527 32.2039 64.2773 32.2041L63.7499 32.2061C63.6745 32.2064 63.6326 32.1563 63.6406 32.0808L63.6732 31.8294C63.673 31.7958 63.6562 31.7875 63.6229 31.8127C63.3811 32.1069 63.0302 32.2674 62.578 32.2692C61.8078 32.272 61.1613 31.8135 61.2666 30.8913L61.5994 28.0744C61.6075 27.9989 61.666 27.9485 61.7413 27.9482L62.2688 27.9462C62.3442 27.9459 62.3863 27.9959 62.3781 28.0715L62.0695 30.637C62.0047 31.2069 62.2656 31.5748 62.8098 31.5727C63.3541 31.5708 63.7463 31.2005 63.8111 30.6304L64.1197 28.0649C64.1278 27.9894 64.1862 27.939 64.253 27.9387H64.253Z" fill="#242E3F"/>
<path fill-rule="evenodd" clip-rule="evenodd" d="M68.087 27.972C68.1455 28.0053 68.1543 28.0639 68.1293 28.1311L67.9555 28.6769C67.9309 28.7692 67.8806 28.7778 67.7969 28.753C67.7047 28.7198 67.5623 28.7035 67.4035 28.7208C66.9096 28.7395 66.484 29.1017 66.4192 29.6638L66.1269 32.0718C66.1188 32.1472 66.0688 32.1978 65.9934 32.198L65.4577 32.2002C65.3824 32.2004 65.3404 32.1501 65.3485 32.0747L65.8273 28.056C65.8353 27.9803 65.8939 27.9298 65.9693 27.9296L66.5049 27.9276C66.5717 27.9274 66.6139 27.9774 66.6059 28.0529L66.5654 28.4389C66.5571 28.4809 66.5822 28.4892 66.6071 28.4555C66.8571 28.1107 67.2079 27.8829 67.6596 27.8814C67.8522 27.8806 67.9864 27.922 68.087 27.972V27.972Z" fill="#242E3F"/>
<path fill-rule="evenodd" clip-rule="evenodd" d="M70.7735 30.0381C70.8304 29.5603 70.7956 29.2169 70.6857 28.9661C70.5674 28.6901 70.3573 28.54 70.0473 28.5412C69.729 28.5424 69.4699 28.6858 69.2781 28.9461C69.078 29.2066 68.9454 29.559 68.8802 30.0534C68.8316 30.5062 68.8664 30.8412 68.9596 31.092C69.0777 31.3932 69.3299 31.5515 69.6901 31.5501C70.0083 31.549 70.2591 31.3803 70.4507 31.0949C70.6089 30.8513 70.7165 30.499 70.7735 30.0381H70.7735ZM71.1508 27.9088L71.6871 27.9067C71.7624 27.9065 71.8045 27.9565 71.7963 28.032L71.3171 32.0467C71.309 32.1221 71.2589 32.1726 71.1836 32.1729L70.6475 32.1749C70.5721 32.1752 70.53 32.125 70.538 32.0496L70.5624 31.8317C70.5706 31.7982 70.5454 31.7814 70.5204 31.8067C70.2533 32.0925 69.8936 32.2446 69.5251 32.246C68.7292 32.249 68.2669 31.8151 68.1217 31.112C68.0535 30.8106 68.0522 30.4503 68.1093 30.0396C68.1498 29.6625 68.2239 29.3188 68.3486 29.025C68.6558 28.3034 69.2238 27.8488 70.0448 27.8457C70.4217 27.8445 70.7406 27.994 70.9428 28.2696C70.9596 28.2948 70.9847 28.2863 70.9928 28.2528L71.0173 28.0349C71.0254 27.9594 71.0839 27.9089 71.1508 27.9088L71.1508 27.9088Z" fill="#242E3F"/>
<path fill-rule="evenodd" clip-rule="evenodd" d="M75.0038 30.0233C75.0607 29.5454 75.026 29.2021 74.9159 28.9511C74.7977 28.6752 74.5878 28.5252 74.2778 28.5264C73.9595 28.5275 73.7002 28.671 73.5084 28.9313C73.3085 29.1918 73.1757 29.5441 73.1105 30.0386C73.0619 30.4913 73.0967 30.8262 73.1898 31.0772C73.3082 31.3783 73.5602 31.5366 73.9204 31.5353C74.2388 31.534 74.4895 31.3655 74.681 31.08C74.8394 30.8364 74.9469 30.4843 75.0038 30.0233V30.0233ZM75.5763 26.293L76.1124 26.291C76.1796 26.2908 76.23 26.3407 76.2135 26.4163L75.5475 32.0319C75.5394 32.1072 75.4894 32.1577 75.414 32.158L74.8778 32.16C74.8024 32.1603 74.7604 32.1101 74.7684 32.0347L74.7927 31.8168C74.8009 31.7833 74.7757 31.7667 74.7507 31.7918C74.4838 32.0778 74.1241 32.2299 73.7554 32.2311C72.9595 32.2341 72.4972 31.8002 72.3522 31.097C72.284 30.7958 72.2826 30.4355 72.3397 30.0248C72.3802 29.6478 72.4545 29.3038 72.579 29.0102C72.8862 28.2885 73.4542 27.834 74.275 27.831C74.6522 27.8295 74.9711 27.9791 75.1732 28.2549C75.1901 28.2799 75.2152 28.2714 75.2233 28.238L75.4344 26.4192C75.4425 26.3437 75.5008 26.2933 75.5763 26.293Z" fill="#242E3F"/>
<path fill-rule="evenodd" clip-rule="evenodd" d="M79.2548 30.7949C79.3295 30.5935 79.4039 30.2916 79.4363 30.0067C79.4686 29.6966 79.4759 29.4117 79.45 29.2275C79.3646 28.7754 79.0536 28.5086 78.5928 28.5103C78.1404 28.512 77.7729 28.7814 77.5734 29.2344C77.4988 29.4191 77.4328 29.7042 77.3921 30.0144C77.3597 30.316 77.3607 30.6093 77.3865 30.8019C77.4638 31.2539 77.7831 31.5209 78.2439 31.5192C78.688 31.5175 79.0555 31.2481 79.2548 30.7949L79.2548 30.7949ZM76.6336 31.0309C76.5739 30.7546 76.564 30.3777 76.6046 30.009C76.6534 29.64 76.7442 29.2713 76.869 29.0026C77.1929 28.2642 77.8698 27.8175 78.699 27.8145C79.4866 27.8115 80.0413 28.2534 80.1948 28.9817C80.263 29.2664 80.2642 29.635 80.2237 29.987C80.1832 30.3474 80.0923 30.7247 79.9595 31.0183C79.6273 31.7653 78.9503 32.2118 78.1627 32.2147C77.3502 32.2179 76.7788 31.776 76.6336 31.0309H76.6336Z" fill="#242E3F"/>
<path fill-rule="evenodd" clip-rule="evenodd" d="M17.0832 3.60596C18.1427 1.40303 18.9869 0.363262 21.2166 0.354872C22.253 0.350992 23.0703 0.56784 23.638 1.22533C24.1428 1.82042 24.2393 2.44828 24.3697 3.7358L25.8044 17.8981C25.8373 18.2748 25.8704 18.7459 25.8714 18.9974C25.8763 20.3167 25.031 21.011 23.1153 21.0181C21.074 21.0258 20.2546 20.2435 20.1233 18.7361L19.3949 8.71781L15.8781 17.2755C15.4113 18.3768 14.8177 19.2271 13.1533 19.2334C11.4887 19.2396 10.9203 18.3936 10.4452 17.2959L6.86442 8.7332L6.17969 18.7882C6.05943 20.2338 5.34023 21.0846 3.26755 21.0923C1.50889 21.0989 0.564574 20.5056 0.559026 19.0292C0.557956 18.7465 0.587886 18.338 0.648415 17.7408L2.00957 3.8194C2.1302 2.46816 2.22166 1.74524 2.87899 1.14598C3.37967 0.672893 4.13243 0.418758 5.29441 0.414359C7.61846 0.405659 8.47004 1.40777 9.54613 3.63414L13.3125 11.4422L17.0832 3.60596Z" fill="#EB4795"/>
<path fill-rule="evenodd" clip-rule="evenodd" d="M32.9029 7.84792L35.8569 7.83693C36.8625 7.83305 37.5539 7.83051 38.121 8.20544C38.688 8.58037 38.9732 9.17622 38.9772 10.2443C38.981 11.2811 38.7004 11.8791 38.1362 12.2582C37.5719 12.6373 36.8806 12.6398 35.8749 12.6436L32.9208 12.6547L32.9335 16.0163L37.6474 15.9987C38.653 15.9949 39.3443 15.9924 39.9114 16.3673C40.4785 16.7422 40.7636 17.3381 40.7675 18.4062C40.7714 19.4429 40.4909 20.0408 39.9265 20.42C39.3623 20.7991 38.6709 20.8017 37.6652 20.8054L30.186 20.8335C28.2376 20.8407 27.5121 20.1207 27.5048 18.1729L27.4489 3.21842C27.4415 1.27069 28.1617 0.545376 30.1101 0.538136L37.0237 0.512255C38.0294 0.508505 38.7208 0.505875 39.2878 0.880803C39.8549 1.2557 40.1399 1.85155 40.1439 2.91966C40.1478 3.95639 39.8672 4.55448 39.303 4.93358C38.7386 5.31266 38.0473 5.31531 37.0417 5.31907L32.8935 5.33454L32.9029 7.84792Z" fill="#EB4795"/>
<path fill-rule="evenodd" clip-rule="evenodd" d="M47.4511 7.79872L50.4028 7.78773C51.4078 7.78398 52.0987 7.78132 52.6652 8.15636C53.232 8.53126 53.5168 9.12711 53.5207 10.1952C53.5246 11.2319 53.2443 11.83 52.6803 12.2091C52.1165 12.5881 51.4257 12.5907 50.4208 12.5945L47.469 12.6055L47.4816 15.9671L52.192 15.9495C53.1968 15.9457 53.8876 15.9432 54.4542 16.318C55.0209 16.6929 55.3058 17.2888 55.3098 18.357C55.3136 19.3937 55.0333 19.9917 54.4695 20.3709C53.9056 20.75 53.2147 20.7525 52.2098 20.7563L44.7361 20.7842C42.7892 20.7914 42.0643 20.0716 42.057 18.1238L42.0011 3.16935C41.9938 1.22151 42.7134 0.496289 44.6604 0.488959L51.5688 0.463198C52.5736 0.459317 53.2646 0.456817 53.8312 0.831714C54.3977 1.20652 54.6827 1.80249 54.6867 2.87057C54.6906 3.90732 54.4101 4.50528 53.8463 4.88448C53.2825 5.26355 52.5916 5.26611 51.5869 5.26996L47.4417 5.28534L47.4511 7.79872Z" fill="#EB4795"/>
<path fill-rule="evenodd" clip-rule="evenodd" d="M73.5009 16.9663C73.5065 18.4426 73.2266 19.2291 71.4386 19.9896C70.027 20.5916 67.9548 21.0077 65.944 21.0153C59.9742 21.0376 55.1226 17.5374 55.0966 10.5955C55.0688 3.18225 60.524 0.0205378 66.0225 2.99967e-05C67.9076 -0.00698924 69.9513 0.362291 71.3994 1.11084C72.4067 1.64108 73.0692 2.32973 73.0733 3.42907C73.0777 4.59129 72.3303 6.35319 70.7593 6.35917C70.0995 6.36158 69.4699 6.08115 68.7147 5.76987C67.802 5.39637 66.9214 5.14833 65.8533 5.15229C63.2455 5.16203 60.8633 6.67874 60.8776 10.5424C60.8917 14.3119 63.1918 16.031 65.9253 16.0208C67.025 16.0167 67.778 15.7311 67.778 15.7311L67.7726 14.2862C67.7688 13.281 67.7663 12.5899 68.204 12.0228C68.6417 11.4559 69.3635 11.1704 70.6201 11.1657C71.877 11.161 72.6006 11.4411 73.0426 12.0048C73.4845 12.5686 73.4872 13.2597 73.4908 14.2648L73.5009 16.9663Z" fill="#EB4795"/>
<path fill-rule="evenodd" clip-rule="evenodd" d="M86.9988 15.0032C87.7806 14.0575 87.7759 12.8006 87.772 11.7635L87.7399 3.2163C87.7363 2.21088 87.7337 1.51945 88.1713 0.952227C88.6089 0.38497 89.3305 0.0994067 90.5554 0.0949155C91.7805 0.0903044 92.5041 0.370377 92.9459 0.934422C93.3879 1.49838 93.3905 2.18969 93.3941 3.19526L93.4251 11.4596C93.4333 13.6592 93.4422 16.0475 91.6598 18.1909C90.3464 19.7671 88.1834 21.0007 84.1941 21.0155C80.2049 21.0305 78.0327 19.8132 76.7076 18.2468C74.9089 16.1168 74.9 13.7285 74.8918 11.529L74.8608 3.26448C74.8573 2.25903 74.8546 1.56761 75.2923 1.00041C75.73 0.433123 76.4515 0.147559 77.7079 0.142858C78.9644 0.138127 79.6881 0.418229 80.13 0.982275C80.5716 1.54623 80.5743 2.23754 80.578 3.24311L80.61 11.7903C80.6139 12.8274 80.6186 14.0843 81.4074 15.0241C81.9439 15.6819 82.8251 16.0872 84.2071 16.082C85.5891 16.0768 86.4671 15.665 86.9988 15.0032L86.9988 15.0032Z" fill="#EB4795"/>
<path fill-rule="evenodd" clip-rule="evenodd" d="M98.1615 18.886C96.3394 18.8926 95.0465 17.6094 95.0396 15.7874C95.0326 13.9339 96.3158 12.6411 98.138 12.6343C99.9916 12.6273 101.284 13.9105 101.291 15.7641C101.298 17.5861 100.015 18.8789 98.1615 18.886ZM98.1258 9.33563C96.3036 9.34247 95.0107 8.05926 95.0039 6.23715C94.9969 4.38354 96.2802 3.09079 98.1024 3.08401C99.956 3.07699 101.249 4.36016 101.256 6.21371C101.262 8.03588 99.9793 9.32873 98.1258 9.33563Z" fill="#FFA139"/>
</svg>
